# xmcd
#
# Track frame offsets: 
#        150
#        14147
#        25282
#        34195
#        46467
#        58712
#        68352
#        82840
#        91575
#        106467
#        116085
#        128035
#        138645
#        145935
#        159890
#
# Disc length: 2216 seconds
#
# Revision: 0
# Processed by: cddbd v1.5.1PL0 Copyright (c) Steve Scherf et al.
# Submitted via: ExactAudioCopy v0.95a5
#
DISCID=c408a60f
DTITLE=Cadillac Cowboys - Cadillac Cowboys
DYEAR=1900
DGENRE=Country
TTITLE0=Playboy
TTITLE1=Girl On The Billboard
TTITLE2=Randy Lynn Rag
TTITLE3=Tulsa Time
TTITLE4=Rodeo Highway
TTITLE5=The Race Is On
TTITLE6=Cotton Fields
TTITLE7=Duelling Banjos
TTITLE8=Good Ol' Southern Country Music
TTITLE9=San Antonio Rose
TTITLE10=Tequila Sunrise
TTITLE11=Long Gone Lonesome Blues
TTITLE12=Hello Trouble
TTITLE13=Driving My Life Away
TTITLE14=Foggy Mountain Breakdown
EXTD=
EXTT0=
EXTT1=
EXTT2=
EXTT3=
EXTT4=
EXTT5=
EXTT6=
EXTT7=
EXTT8=
EXTT9=
EXTT10=
EXTT11=
EXTT12=
EXTT13=
EXTT14=
PLAYORDER=
